<svg width="43" height="38" viewBox="0 0 43 38" fill="none" xmlns="http://www.w3.org/2000/svg">
<g clip-path="url(#clip0_381_360)">
<path d="M37.6252 4.75C38.1003 4.75 38.5561 4.91681 38.8921 5.21375C39.2281 5.51068 39.4168 5.91341 39.4168 6.33333V15.0417C38.2289 15.0417 37.0896 15.4587 36.2496 16.201C35.4096 16.9434 34.9377 17.9502 34.9377 19C34.9377 20.0498 35.4096 21.0566 36.2496 21.799C37.0896 22.5413 38.2289 22.9583 39.4168 22.9583V31.6667C39.4168 32.0866 39.2281 32.4893 38.8921 32.7863C38.5561 33.0832 38.1003 33.25 37.6252 33.25H5.37516C4.89998 33.25 4.44427 33.0832 4.10826 32.7863C3.77226 32.4893 3.5835 32.0866 3.5835 31.6667V22.9583C4.77144 22.9583 5.91074 22.5413 6.75075 21.799C7.59075 21.0566 8.06266 20.0498 8.06266 19C8.06266 17.9502 7.59075 16.9434 6.75075 16.201C5.91074 15.4587 4.77144 15.0417 3.5835 15.0417V6.33333C3.5835 5.91341 3.77226 5.51068 4.10826 5.21375C4.44427 4.91681 4.89998 4.75 5.37516 4.75H37.6252ZM35.8335 7.91667H7.16683V12.616L7.44633 12.7442C8.66165 13.3302 9.68578 14.1827 10.4201 15.2199C11.1544 16.2571 11.5741 17.4438 11.6388 18.6659L11.646 19C11.6462 20.2797 11.2563 21.5359 10.5173 22.6364C9.77833 23.7369 8.7175 24.6412 7.44633 25.2542L7.16683 25.384V30.0833H35.8335V25.3824L35.554 25.2558C34.3387 24.6698 33.3145 23.8173 32.5802 22.7801C31.8459 21.7429 31.4262 20.5562 31.3615 19.3341L31.3543 19C31.3543 16.302 33.051 13.9539 35.554 12.7458L35.8335 12.6144V7.91667ZM28.6668 14.25V23.75H14.3335V14.25H28.6668Z" fill="white"/>
</g>
<defs>
<clipPath id="clip0_381_360">
<rect width="43" height="38" fill="white"/>
</clipPath>
</defs>
</svg>
