<svg width="17" height="17" viewBox="0 0 17 17" fill="none" xmlns="http://www.w3.org/2000/svg">
<g clip-path="url(#clip0_258_796)">
<path d="M8.5 14.8039L12.0063 11.2977C12.6996 10.6042 13.1718 9.72075 13.3631 8.75894C13.5544 7.79713 13.4562 6.8002 13.0809 5.89422C12.7056 4.98823 12.07 4.21387 11.2547 3.66907C10.4393 3.12426 9.48065 2.83347 8.5 2.83347C7.51936 2.83347 6.56074 3.12426 5.74535 3.66907C4.92997 4.21387 4.29445 4.98823 3.91915 5.89422C3.54385 6.8002 3.44563 7.79713 3.63691 8.75894C3.82818 9.72075 4.30037 10.6042 4.99375 11.2977L8.5 14.8039ZM8.5 16.8071L3.99217 12.2993C3.10062 11.4077 2.49347 10.2718 2.24749 9.03517C2.00152 7.79855 2.12777 6.51675 2.61028 5.35188C3.09279 4.187 3.90989 3.19137 4.95825 2.49088C6.00661 1.79039 7.23915 1.4165 8.5 1.4165C9.76086 1.4165 10.9934 1.79039 12.0418 2.49088C13.0901 3.19137 13.9072 4.187 14.3897 5.35188C14.8722 6.51675 14.9985 7.79855 14.7525 9.03517C14.5065 10.2718 13.8994 11.4077 13.0078 12.2993L8.5 16.8071V16.8071ZM8.5 9.20811C8.87573 9.20811 9.23606 9.05886 9.50174 8.79318C9.76741 8.5275 9.91667 8.16717 9.91667 7.79145C9.91667 7.41572 9.76741 7.05539 9.50174 6.78971C9.23606 6.52404 8.87573 6.37478 8.5 6.37478C8.12428 6.37478 7.76395 6.52404 7.49827 6.78971C7.23259 7.05539 7.08334 7.41572 7.08334 7.79145C7.08334 8.16717 7.23259 8.5275 7.49827 8.79318C7.76395 9.05886 8.12428 9.20811 8.5 9.20811ZM8.5 10.6248C7.74856 10.6248 7.02789 10.3263 6.49653 9.79492C5.96518 9.26356 5.66667 8.54289 5.66667 7.79145C5.66667 7.04 5.96518 6.31933 6.49653 5.78798C7.02789 5.25663 7.74856 4.95811 8.5 4.95811C9.25145 4.95811 9.97212 5.25663 10.5035 5.78798C11.0348 6.31933 11.3333 7.04 11.3333 7.79145C11.3333 8.54289 11.0348 9.26356 10.5035 9.79492C9.97212 10.3263 9.25145 10.6248 8.5 10.6248Z" fill="#C1C1C1"/>
</g>
<defs>
<clipPath id="clip0_258_796">
<rect width="17" height="17" fill="white"/>
</clipPath>
</defs>
</svg>
