<svg width="33" height="32" viewBox="0 0 33 32" fill="none" xmlns="http://www.w3.org/2000/svg">
<path d="M16.25 17.4167C18.9426 17.4167 21.125 19.5431 21.125 22.1667C21.125 23.5125 20.5514 24.7253 19.63 25.5898L16.5263 28.5H21.125V31.6667H11.375V28.937L17.3761 23.3083C17.6849 23.0185 17.875 22.6147 17.875 22.1667C17.875 21.2927 17.147 20.5833 16.25 20.5833C15.353 20.5833 14.625 21.2927 14.625 22.1667H11.375C11.375 19.5431 13.5574 17.4167 16.25 17.4167ZM26 17.4167V23.75H29.25V17.4167H32.5V31.6667H29.25V26.9167H22.75V17.4167H26ZM3.25 15.8333C3.25 19.8344 5.15287 23.4017 8.125 25.7228V29.5482C3.26787 26.8106 0 21.6948 0 15.8333H3.25ZM16.25 0C24.6756 0 31.6046 6.24942 32.4188 14.25H29.1493C28.3497 8.00217 22.88 3.16667 16.25 3.16667C11.7812 3.16667 7.839 5.36275 5.50063 8.70833H9.75V11.875H0V2.375H3.25V6.33333C6.214 2.48583 10.9346 0 16.25 0Z" fill="#FFFCFC"/>
</svg>
