<svg width="28" height="28" viewBox="0 0 28 28" fill="none" xmlns="http://www.w3.org/2000/svg">
<path d="M14.0006 9.99984C12.9397 9.99984 11.9223 10.4213 11.1721 11.1714C10.422 11.9216 10.0006 12.939 10.0006 13.9998C10.0006 15.0607 10.422 16.0781 11.1721 16.8283C11.9223 17.5784 12.9397 17.9998 14.0006 17.9998C15.0614 17.9998 16.0789 17.5784 16.829 16.8283C17.5791 16.0781 18.0006 15.0607 18.0006 13.9998C18.0006 12.939 17.5791 11.9216 16.829 11.1714C16.0789 10.4213 15.0614 9.99984 14.0006 9.99984ZM14.0006 7.33317C15.7687 7.33317 17.4644 8.03555 18.7146 9.28579C19.9649 10.536 20.6672 12.2317 20.6672 13.9998C20.6672 15.768 19.9649 17.4636 18.7146 18.7139C17.4644 19.9641 15.7687 20.6665 14.0006 20.6665C12.2325 20.6665 10.5368 19.9641 9.28653 18.7139C8.03628 17.4636 7.3339 15.768 7.3339 13.9998C7.3339 12.2317 8.03628 10.536 9.28653 9.28579C10.5368 8.03555 12.2325 7.33317 14.0006 7.33317ZM22.6672 6.99984C22.6672 7.44187 22.4916 7.86579 22.1791 8.17835C21.8665 8.49091 21.4426 8.66651 21.0006 8.66651C20.5585 8.66651 20.1346 8.49091 19.8221 8.17835C19.5095 7.86579 19.3339 7.44187 19.3339 6.99984C19.3339 6.55781 19.5095 6.13389 19.8221 5.82133C20.1346 5.50877 20.5585 5.33317 21.0006 5.33317C21.4426 5.33317 21.8665 5.50877 22.1791 5.82133C22.4916 6.13389 22.6672 6.55781 22.6672 6.99984ZM14.0006 3.33317C10.7019 3.33317 10.1632 3.3425 8.62857 3.4105C7.58324 3.45984 6.8819 3.59984 6.23124 3.85317C5.65257 4.07717 5.23524 4.34517 4.79124 4.7905C4.37391 5.1937 4.05304 5.68595 3.85257 6.2305C3.59924 6.88384 3.45924 7.58384 3.41124 8.62784C3.3419 10.0998 3.3339 10.6145 3.3339 13.9998C3.3339 17.2985 3.34324 17.8372 3.41124 19.3718C3.46057 20.4158 3.60057 21.1185 3.85257 21.7678C4.07924 22.3478 4.3459 22.7652 4.78857 23.2078C5.2379 23.6558 5.65524 23.9238 6.22857 24.1452C6.88724 24.3998 7.58857 24.5412 8.62857 24.5892C10.1006 24.6585 10.6152 24.6665 14.0006 24.6665C17.2992 24.6665 17.8379 24.6572 19.3726 24.5892C20.4152 24.5398 21.1179 24.3998 21.7686 24.1478C22.3459 23.9225 22.7659 23.6545 23.2086 23.2118C23.6579 22.7625 23.9259 22.3452 24.1472 21.7718C24.4006 21.1145 24.5419 20.4118 24.5899 19.3718C24.6592 17.8998 24.6672 17.3852 24.6672 13.9998C24.6672 10.7012 24.6579 10.1625 24.5899 8.62784C24.5406 7.58517 24.4006 6.88117 24.1472 6.2305C23.9463 5.68651 23.626 5.19445 23.2099 4.7905C22.8069 4.37297 22.3146 4.05206 21.7699 3.85184C21.1166 3.5985 20.4152 3.4585 19.3726 3.4105C17.9006 3.34117 17.3859 3.33317 14.0006 3.33317ZM14.0006 0.666504C17.6232 0.666504 18.0752 0.679837 19.4966 0.746504C20.9166 0.813171 21.8832 1.03584 22.7339 1.3665C23.6139 1.70517 24.3552 2.16384 25.0966 2.90384C25.7746 3.57037 26.2992 4.37662 26.6339 5.2665C26.9632 6.11584 27.1872 7.08384 27.2539 8.50384C27.3166 9.92517 27.3339 10.3772 27.3339 13.9998C27.3339 17.6225 27.3206 18.0745 27.2539 19.4958C27.1872 20.9158 26.9632 21.8825 26.6339 22.7332C26.3001 23.6235 25.7754 24.43 25.0966 25.0958C24.4299 25.7736 23.6237 26.2982 22.7339 26.6332C21.8846 26.9625 20.9166 27.1865 19.4966 27.2532C18.0752 27.3158 17.6232 27.3332 14.0006 27.3332C10.3779 27.3332 9.9259 27.3198 8.50457 27.2532C7.08457 27.1865 6.1179 26.9625 5.26724 26.6332C4.37701 26.2991 3.57061 25.7744 2.90457 25.0958C2.22645 24.4294 1.70181 23.6231 1.36724 22.7332C1.03657 21.8838 0.813903 20.9158 0.747236 19.4958C0.68457 18.0745 0.667236 17.6225 0.667236 13.9998C0.667236 10.3772 0.68057 9.92517 0.747236 8.50384C0.813903 7.0825 1.03657 6.11717 1.36724 5.2665C1.70088 4.37608 2.22564 3.5696 2.90457 2.90384C3.5708 2.22548 4.37714 1.70081 5.26724 1.3665C6.1179 1.03584 7.08324 0.813171 8.50457 0.746504C9.9259 0.683837 10.3779 0.666504 14.0006 0.666504Z" fill="white"/>
</svg>
