<svg width="28" height="27" viewBox="0 0 28 27" fill="none" xmlns="http://www.w3.org/2000/svg">
<path d="M15.3339 23.9173C18.0236 23.5751 20.4821 22.2215 22.2097 20.1317C23.9372 18.0419 24.8042 15.3727 24.6344 12.6666C24.4646 9.96055 23.2708 7.42065 21.2956 5.56317C19.3204 3.7057 16.712 2.67003 14.0006 2.66667C11.2859 2.66465 8.6725 3.69778 6.69302 5.55557C4.71354 7.41336 3.51689 9.95599 3.34689 12.6654C3.1769 15.3748 4.04635 18.047 5.7781 20.1377C7.50984 22.2283 9.97356 23.58 12.6672 23.9173V16H10.0006V13.3333H12.6672V11.128C12.6672 9.34534 12.8539 8.69867 13.2006 8.04667C13.5421 7.40158 14.0699 6.87425 14.7152 6.53333C15.2246 6.26 15.8579 6.096 16.9646 6.02533C17.4032 5.99733 17.9712 6.032 18.6686 6.132V8.66533H18.0006C16.7779 8.66533 16.2726 8.72267 15.9712 8.884C15.7914 8.97648 15.645 9.12286 15.5526 9.30267C15.3926 9.604 15.3339 9.90267 15.3339 11.1267V13.3333H18.6672L18.0006 16H15.3339V23.9173ZM14.0006 26.6667C6.63657 26.6667 0.667236 20.6973 0.667236 13.3333C0.667236 5.96934 6.63657 0 14.0006 0C21.3646 0 27.3339 5.96934 27.3339 13.3333C27.3339 20.6973 21.3646 26.6667 14.0006 26.6667Z" fill="white"/>
</svg>
