<svg width="28" height="28" viewBox="0 0 28 28" fill="none" xmlns="http://www.w3.org/2000/svg">
<path d="M14.0006 24.6665C16.8295 24.6665 19.5427 23.5427 21.543 21.5423C23.5434 19.5419 24.6672 16.8288 24.6672 13.9998C24.6672 11.1709 23.5434 8.45775 21.543 6.45737C19.5427 4.45698 16.8295 3.33317 14.0006 3.33317C11.1716 3.33317 8.45849 4.45698 6.4581 6.45737C4.45771 8.45775 3.3339 11.1709 3.3339 13.9998C3.3339 16.8288 4.45771 19.5419 6.4581 21.5423C8.45849 23.5427 11.1716 24.6665 14.0006 24.6665ZM14.0006 27.3332C6.63657 27.3332 0.667236 21.3638 0.667236 13.9998C0.667236 6.63584 6.63657 0.666504 14.0006 0.666504C21.3646 0.666504 27.3339 6.63584 27.3339 13.9998C27.3339 21.3638 21.3646 27.3332 14.0006 27.3332ZM9.85391 15.5598L6.52324 14.5212C5.80324 14.3012 5.79924 13.8052 6.68457 13.4492L19.6619 8.43584C20.4152 8.12917 20.8419 8.51717 20.5979 9.48917L18.3886 19.9158C18.2339 20.6585 17.7872 20.8358 17.1672 20.4932L13.7659 17.9758L12.1806 19.5065C12.0179 19.6638 11.8859 19.7985 11.6352 19.8318C11.3859 19.8665 11.1806 19.7918 11.0299 19.3785L9.86991 15.5505L9.85391 15.5612V15.5598Z" fill="white"/>
</svg>
